<svg xmlns="http://www.w3.org/2000/svg" width="640" height="680" viewBox="0 0 640 680"><defs><linearGradient id="sky" x2="0" y2="1"><stop stop-color="#d8e4d4"/><stop offset="1" stop-color="#f4dfb9"/></linearGradient><linearGradient id="hill" x2="0" y2="1"><stop stop-color="#305f4e"/><stop offset="1" stop-color="#153e34"/></linearGradient></defs><path fill="url(#sky)" d="M0 0h640v680H0z"/><circle cx="440" cy="170" r="67" fill="#f5cb7f"/><path d="M0 295 120 194 224 278 342 180 479 310 575 230 640 263V680H0" fill="#a8b8a0"/><path d="m0 370 142-138 144 174 116-129 130 59 108-30v374H0" fill="#7f9f85"/><path d="M0 359q115-55 232 65t408-85v341H0" fill="#527e63"/><path d="M0 487q170-136 328-39t312-7v239H0" fill="url(#hill)"/><path d="M328 443c-91 34 30 43-28 76s-157 23-130 69 84 32 60 92" stroke="#dbce9e" stroke-width="13" fill="none"/><path d="m525 398-22 53h44zm-44 51-28 64h56zm82-37-27 64h54zM60 390l-22 57h44zm53 26-28 65h56zM588 527l-34 75h68z" fill="#214a3a"/><path d="M0 614q95-17 148 66H0zm357 66q102-110 283-51v51" fill="#113b30"/><g fill="none" stroke="#315442" stroke-width="2" opacity=".7"><path d="m101 136 9-4 10 5m25-32 9-3 10 5m-1 30 8-3 8 4"/></g></svg>
